<svg xmlns="http://www.w3.org/2000/svg" xmlns:xlink="http://www.w3.org/1999/xlink" id="Layer_1" width="545.883" height="444.097" enable-background="new 0 0 545.883 444.097" overflow="visible" version="1.1" viewBox="0 0 545.883 444.097" xml:space="preserve"><switch><g><g><polygon fill="#437892" points=".049 301.977 19.878 301.831 19.878 424.998 51.061 424.998 51.061 444.097 0 444.097"/><polygon fill="#437892" points="61.049 301.977 81.706 301.977 81.658 444.048 61 444.048"/><polygon fill="#437892" points="328.312 302.045 308.844 302.038 308.844 301.977 288.189 301.977 288.189 302.033 267.383 302.026 267.383 320.788 288.181 320.795 288.139 444.048 308.799 444.048 308.839 320.802 328.312 320.81"/><polygon fill="#437892" points="236.886 301.977 236.861 372.052 210.452 372.045 210.476 301.977 189.818 301.977 189.771 444.048 210.428 444.048 210.446 389.347 236.854 389.355 236.835 444.048 257.495 444.048 257.54 301.977"/><path fill="#437892" d="M155.861,439.395c5.386-3.427,8.851-7.929,11.546-13.47c5.846-14.325,4.238-56.858,4.238-56.858 l-34.022-0.167l-0.199,15.742h16.284c0,0,3.816,38.405-8.665,41.283c-10.098,2.331-22.279,0.002-22.478-17.855 c-0.151-13.691-0.791-67.398,0.794-75.271c3.074-15.276,17.234-18.624,25.753-10.565c6.921,6.556,6.538,14.404,6.538,14.404 l17.83-6.915c0.665,1.29-3.313-9.743-8.122-16.32c-2.873-3.552-4.556-5.57-8.023-7.489 c-10.698-6.526-43.848-13.402-52.202,24.004c-2.545,11.396-4.32,68.873,0.595,89.863 C110.68,440.926,135.812,449.23,155.861,439.395z"/><polygon fill="#97A9B8" points="389.308 302.045 369.846 302.038 369.846 301.977 349.186 301.977 349.186 302.033 328.382 302.026 328.382 320.788 349.181 320.795 349.14 444.048 369.795 444.048 369.836 320.802 389.308 320.81"/><path fill="#97A9B8" d="M421.391,302.552L421.391,302.552l8.601-0.393l-29.256-0.183l-0.05,142.071h20.659l0.021-62.085 l0.027,0.019C480.834,387.936,471.674,294.197,421.391,302.552z M421.783,365.654l-0.413-0.32l0.016-46.167 c0.003,0,0.005,0,0.007,0C448.287,317.44,446.143,368.534,421.783,365.654z"/><path fill="#97A9B8" d="M537.982,326.742c-7.597-14.621-19.57-24.593-36.078-24.67c-2.572-0.011-4.771-0.014-6.85,0.014v-0.109 H475.18l-0.049,142.071h19.881v-0.142l7.838,0.142c14.696,0,25.88-8.756,33.438-21.915 C549.061,395.86,548.521,354.052,537.982,326.742z M506.362,426.947l-11.347,0.064l0.032-106.362 c3.762,0.002,7.937,0.155,11.899,0.036C531.211,319.954,530.626,428.263,506.362,426.947z"/></g><g><polygon fill="#437892" points="206.53 219.832 186.067 209.407 179.929 246.727"/><polygon fill="#DFE8ED" points="118.053 158.247 440.785 0 277.859 258.027 185.873 210.477 161.707 190.208"/><polygon fill="#98AAB9" points="179.929 247.115 162.681 190.99 437.859 2.535 185.97 210.771"/></g></g></switch></svg>