<svg xmlns="http://www.w3.org/2000/svg" xmlns:xlink="http://www.w3.org/1999/xlink" width="800" height="129.039" xmlns:v="https://vecta.io/nano"><defs><clipPath id="A"><path transform="matrix(.734492 .678618 -.784972 .619531 0 0)" d="M-83-347.714h436.402v326.41H-83z" fill="#e57000" fill-opacity="1" fill-rule="evenodd" stroke="none"/></clipPath><path id="B" d="M276.304 226.623L466.892 17.021c-7.393-7.393-16.005-13.201-25.834-17.426s-20.392-6.377-31.684-6.459c-11.993.092-22.981 2.468-32.963 7.129a80.91 80.91 0 0 0-26.017 19.193l-74.091 80.915L202.7 19.458c-7.626-8.134-16.502-14.531-26.626-19.193s-21.072-7.037-32.841-7.129c-11.292.082-21.854 2.234-31.684 6.459S93.107 9.628 85.714 17.021l190.593 209.597"/></defs><g transform="matrix(.280267 0 0 .280267 410.3049 100.186587)"><g transform="matrix(.852866 0 0 .852866 -2204.7964 -970.06495)"><g clip-path="url(#A)" transform="matrix(-.99792 0 0 .99792 1452.3586 746.04784)"><use xlink:href="#B"/></g><g transform="matrix(.99792 0 0 -.99792 900.89604 1230.3576)" clip-path="url(#A)"><use xlink:href="#B"/></g><path d="M1160.629 988.205h0l-143.266-157.112a92.61 92.61 0 0 0-29.093-20.971c-11.062-5.093-23.024-7.689-35.883-7.789-12.338.089-23.878 2.441-34.618 7.057s-20.15 10.963-28.227 19.04l145.398 159.778-145.398 159.778c8.078 8.333 17.487 14.835 28.227 19.506s22.28 7.046 34.618 7.123c12.893-.1 24.921-2.696 36.083-7.789s20.793-12.083 28.893-20.971l143.266-157.649m31.992-.001h0l143.266-157.112a92.61 92.61 0 0 1 29.093-20.971c11.062-5.093 23.024-7.689 35.883-7.789 12.339.089 23.878 2.441 34.619 7.057s20.15 10.963 28.227 19.04l-145.398 159.778 145.398 159.778c-8.078 8.333-17.487 14.835-28.227 19.506s-22.28 7.046-34.618 7.123c-12.893-.1-24.921-2.696-36.083-7.789s-20.793-12.083-28.893-20.971l-143.266-157.649" fill="#e57000"/></g><path d="M-686.181-262.387h-177.87c-6.983.194-12.877 2.713-17.68 7.557s-7.306 10.851-7.508 18.02V8.875c19.085-.476 34.973-7.08 47.665-19.812s19.279-28.733 19.763-48.004h135.631c19.287-.476 35.353-7.08 48.197-19.812s19.513-28.733 20.006-48.004v-67.428c-.493-19.287-7.161-35.353-20.006-48.197s-28.911-19.513-48.197-20.006zm-135.631 144.156v-75.953h118.968c.694-.347 3.471.347 8.332 2.083s7.637 6.596 8.332 14.58v42.239c.347.711-.347 3.552-2.083 8.525s-6.596 7.815-14.58 8.525zm513.767-25.189v-50.765c-.477-19.287-7.081-35.353-19.812-48.197s-28.733-19.513-48.004-20.006h-177.87c-7.153.194-13.095 2.713-17.826 7.557s-7.185 10.851-7.363 18.02V8.875c19.101-.476 35.054-7.08 47.858-19.812s19.457-28.733 19.957-48.004v-17.051h77.116l39.139 55.802c6.281 9.01 14.16 16.082 23.639 21.217s20.07 7.75 31.776 7.847c5.643-.008 11.117-.67 16.421-1.986s10.293-3.237 14.968-5.764l-54.64-77.891c15.84-3.431 28.821-11.198 38.945-23.299s15.355-26.553 15.694-43.353zm-203.059 8.138v-58.903h118.193c.71-.347 3.552.347 8.525 2.083s7.815 6.596 8.525 14.58v25.576c.355.694-.355 3.472-2.131 8.332s-6.749 7.637-14.919 8.332zm444.807-127.105H-201.54c-19.271.493-35.272 7.161-48.004 20.006s-19.335 28.911-19.812 48.197v135.243c.476 19.271 7.08 35.272 19.812 48.004s28.733 19.335 48.004 19.812h135.243c19.271-.476 35.272-7.08 48.004-19.812S1.042-39.67 1.518-58.941v-135.243c-.477-19.287-7.081-35.353-19.812-48.197s-28.733-19.513-48.004-20.006zm0 186.396c.355.711-.355 3.552-2.131 8.525s-6.749 7.815-14.919 8.525H-184.49c-.711.355-3.552-.355-8.525-2.131s-7.815-6.749-8.525-14.919V-177.52c-.355-.694.355-3.471 2.131-8.332s6.749-7.637 14.919-8.332h101.142c.71-.347 3.552.347 8.525 2.083s7.815 6.596 8.525 14.58z"/><path d="M343.246-243.012c-5.878-5.877-12.724-10.495-20.538-13.854s-16.211-5.07-25.189-5.135c-9.551.073-18.351 1.962-26.4 5.667s-15.008 8.792-20.877 15.258l-58.515 64.328-58.903-64.328c-6.023-6.636-12.966-11.771-20.829-15.404s-16.55-5.473-26.061-5.522c-8.978.065-17.374 1.776-25.189 5.135s-14.661 7.977-20.538 13.854L146-126.756 40.207-10.501C46.085-4.438 52.931.293 60.746 3.692s16.211 5.127 25.189 5.183c9.381-.073 18.133-1.962 26.254-5.667s15.129-8.792 21.023-15.258l58.515-64.328 58.515 64.328c5.869 6.467 12.828 11.553 20.877 15.258s16.849 5.595 26.4 5.667c8.977-.057 17.373-1.784 25.189-5.183s14.661-8.13 20.538-14.193L237.454-126.756z" fill="#e57000"/><path d="M695.818-262.387h-42.627c-13.943.194-26.359 3.972-37.25 11.335s-19.142 17.148-24.753 29.354l.388-.775-39.914 87.579-39.527-87.579v.775c-5.442-12.207-13.644-21.991-24.607-29.354s-23.429-11.141-37.395-11.335h-42.239c-7.339.194-13.394 2.713-18.165 7.557s-7.242 10.851-7.411 18.02V8.875c19.101-.476 35.054-7.08 47.858-19.812s19.457-28.733 19.957-48.004v-129.818c.024-1.768.557-3.173 1.599-4.214s2.446-1.574 4.214-1.599c1.009.032 1.994.355 2.955.969s1.655 1.324 2.083 2.131l75.178 165.857c1.421 2.963 3.52 5.369 6.297 7.217a16.78 16.78 0 0 0 9.204 2.858c3.334-.04 6.353-.928 9.058-2.664s4.852-4.077 6.442-7.024l75.178-166.245c.589-.807 1.348-1.518 2.277-2.131a5.9 5.9 0 0 1 3.149-.969c1.582.024 2.874.557 3.875 1.599s1.518 2.446 1.55 4.214v129.818c.5 19.271 7.153 35.272 19.957 48.004s28.757 19.335 47.858 19.812v-245.686c-.178-7.169-2.632-13.175-7.363-18.02s-10.673-7.363-17.826-7.557zm267.24 0H827.815c-19.271.493-35.272 7.161-48.004 20.006s-19.335 28.911-19.812 48.197v135.243c.476 19.271 7.08 35.272 19.812 48.004s28.733 19.335 48.004 19.812h135.243c19.271-.476 35.272-7.08 48.004-19.812s19.335-28.733 19.812-48.004v-135.243c-.477-19.287-7.081-35.353-19.812-48.197s-28.733-19.513-48.004-20.006zm0 186.396c.355.711-.355 3.552-2.131 8.525s-6.749 7.815-14.919 8.525H844.866c-.711.355-3.552-.355-8.525-2.131s-7.815-6.749-8.525-14.919V-177.52c-.355-.694.355-3.471 2.131-8.332s6.749-7.637 14.919-8.332h101.142c.71-.347 3.552.347 8.525 2.083s7.815 6.596 8.525 14.58z"/><path d="M1372.601-243.012c-5.878-5.877-12.724-10.495-20.538-13.854s-16.211-5.07-25.189-5.135c-9.551.073-18.351 1.962-26.4 5.667s-15.008 8.792-20.878 15.258l-58.515 64.328-58.903-64.328c-6.023-6.636-12.966-11.771-20.829-15.404s-16.55-5.473-26.061-5.522c-8.977.065-17.374 1.776-25.189 5.135s-14.661 7.977-20.538 13.854l105.792 116.255-105.792 116.255c5.877 6.063 12.724 10.794 20.538 14.193s16.211 5.127 25.189 5.183c9.381-.073 18.133-1.962 26.254-5.667s15.129-8.792 21.023-15.258l58.515-64.328 58.515 64.328c5.869 6.467 12.828 11.553 20.878 15.258s16.849 5.595 26.4 5.667c8.977-.057 17.373-1.784 25.189-5.183s14.661-8.13 20.538-14.193l-105.792-116.255z" fill="#e57000"/></g></svg>