<svg xmlns="http://www.w3.org/2000/svg" viewBox="0 0 226 52" fill-rule="evenodd" stroke-linejoin="round" stroke-miterlimit="1.41421"><g transform="matrix(.8794 0 0 .619 -12.311 -358.429)"><clipPath id="A"><path d="M14 579h257v84H14z"/></clipPath><g clip-path="url(#A)"><g transform="matrix(2.8773 0 0 4.0874 1493.153807 212.653856)" fill-rule="nonzero"><path d="M-493.562 100.094c-.676-1.171-1.66-2.054-2.791-2.605-.145.772-.418 1.534-.833 2.252l-.654 1.136a2.83 2.83 0 0 1 1.083 1.062 2.85 2.85 0 0 1-1.042 3.889 2.85 2.85 0 0 1-3.889-1.042l-1.32-2.283h-2.131l-1.065 1.845 1.321 2.283a6.54 6.54 0 0 0 8.93 2.393 6.54 6.54 0 0 0 2.393-8.929" fill="#70caf2"/><path d="M-500.11 90.506a6.54 6.54 0 0 0-8.929 2.393c-.676 1.171-.949 2.465-.861 3.719.741-.261 1.537-.405 2.367-.405l1.31-.001a2.83 2.83 0 0 1 .378-1.468 2.85 2.85 0 0 1 3.889-1.042 2.85 2.85 0 0 1 1.042 3.889l-1.317 2.285 1.065 1.845h2.131l1.316-2.286a6.54 6.54 0 0 0-2.393-8.929" fill="#b4e3f9"/><path d="M-505.415 106.938l-.657-1.134a2.83 2.83 0 0 1-1.461.407 2.85 2.85 0 0 1-2.847-2.847 2.85 2.85 0 0 1 2.847-2.847l2.637-.002 1.066-1.845-1.066-1.845-2.638.002a6.54 6.54 0 0 0-6.537 6.537 6.54 6.54 0 0 0 6.537 6.537c1.352 0 2.608-.411 3.65-1.114a7.12 7.12 0 0 1-1.533-1.849" fill="#3f79ad"/><g fill="#050000"><path d="M-482.708 99.827c1.875 0 3.269-.945 3.269-2.564v-.032c0-1.506-1.186-2.451-3.22-2.451h-3.829v5.047h3.781zm-4.614-5.816h4.711c1.378 0 2.483.433 3.156 1.106.529.529.849 1.281.849 2.083v.032c0 1.875-1.394 2.948-3.284 3.204l3.701 4.791h-1.057l-3.573-4.647h-.032-3.637v4.647h-.833V94.011zm9.804 5.639v-.032c0-3.189 2.403-5.8 5.848-5.8 2.115 0 3.381.705 4.422 1.73l-1.57 1.81c-.865-.785-1.746-1.266-2.868-1.266-1.891 0-3.253 1.57-3.253 3.493v.032c0 1.923 1.33 3.525 3.253 3.525 1.282 0 2.067-.513 2.948-1.314l1.571 1.586c-1.154 1.234-2.436 2.003-4.599 2.003-3.3 0-5.752-2.548-5.752-5.768m11.359-5.638h2.467v8.972h5.592v2.243h-8.059V94.011zm17.158 5.639v-.032c0-1.923-1.41-3.525-3.397-3.525s-3.365 1.57-3.365 3.493v.032c0 1.923 1.41 3.525 3.397 3.525s3.364-1.57 3.364-3.493m-9.341 0v-.032c0-3.189 2.515-5.8 5.976-5.8s5.944 2.58 5.944 5.768v.032c0 3.188-2.515 5.8-5.976 5.8s-5.944-2.58-5.944-5.768m13.154-5.639h2.275l5.255 6.905v-6.905h2.435v11.215h-2.099l-5.431-7.13v7.13h-2.436V94.011zm11.695 0h8.46v2.195h-6.009v2.275h5.287v2.195h-5.287v2.355h6.089v2.195h-8.54V94.011z"/></g></g></g></g></svg>