<svg xmlns="http://www.w3.org/2000/svg" viewBox="0 0 368.69 125.59"><defs><clipPath id="A" transform="translate(.01 .01)"><path d="M0 0h146.42v125.48H0z" fill="none"/></clipPath></defs><g clip-path="url(#A)"><path d="M140.67 96.75c-7.8 4.08-48.28 20.73-57 25.3s-13.39 4.44-20.21 1.18-49.75-20.72-57.53-24.44C2.01 96.95.01 95.38.01 93.91V79.1s56.08-12.17 65.13-15.45 12.18-3.36 19.87-.54 53.79 11.14 61.4 13.9v14.6c0 1.52-1.75 3-5.74 5.13z" fill="#a32422"/><path d="M140.67 82.01c-7.8 4.06-48.28 20.71-57 25.2s-13.39 4.45-20.21 1.2S13.71 87.7 5.93 84.01s-7.93-6.27-.3-9.25l59.51-23.05c9.05-3.3 12.18-3.37 19.87-.54s48 18.84 55.57 21.63 7.92 5.08.09 9.13z" fill="#dc382c"/><path d="M140.67 72.63c-7.8 4.07-48.28 20.71-57 25.2s-13.35 4.45-20.17 1.18S13.71 78.38 5.93 74.67C2.01 72.81.01 71.25.01 69.77V55.01S56.09 42.8 65.14 39.52s12.18-3.37 19.87-.51 53.79 11.1 61.4 13.88v14.6c0 1.52-1.75 3.04-5.74 5.14z" fill="#a32422"/><path d="M140.67 57.82c-7.8 4.08-48.28 20.72-57 25.21s-13.39 4.46-20.21 1.2S13.71 63.58 5.93 59.86s-7.92-6.25-.3-9.23l59.51-23c9.05-3.21 12.18-3.41 19.87-.62s48 18.94 55.57 21.65 7.92 5.09.09 9.13z" fill="#dc382c"/><path d="M140.67 47.6c-7.8 4.08-48.28 20.73-57 25.21s-13.35 4.45-20.17 1.2S13.71 53.35 5.93 49.64C2.01 47.8.01 46.23.01 44.75V29.94S56.09 17.77 65.14 14.5s12.18-3.37 19.87-.55 53.77 11.14 61.38 13.92v14.6c.02 1.54-1.73 3.04-5.72 5.13z" fill="#a32422"/><path d="M140.67 32.81c-7.8 4-48.28 20.75-57 25.2s-13.39 4.44-20.21 1.2S13.71 38.54 5.93 34.84s-7.93-6.27-.3-9.25L65.14 2.55c9.05-3.26 12.18-3.36 19.87-.54s48 18.85 55.57 21.63 7.92 5.09.09 9.14z" fill="#dc382c"/></g><path d="M75.51 11.78l9.66-3.17-2.62 6.26 9.83 3.68-12.67 1.32-2.85 6.84-4.58-7.63-14.65-1.32 10.94-3.94-3.29-6.06 10.23 4.02h0 0zm.61 39.93l-23.68-9.83 33.92-5.21-10.24 15.04h0 0zM43.29 22.35c10 0 18.13 3.15 18.13 7s-8.15 7-18.13 7-18.14-3.15-18.14-7 8.13-7 18.14-7z" fill="#fff"/><path d="M107.39 20.42l20.07 7.93-20.05 7.93-.02-15.86h0 0z" fill="#741113"/><path d="M107.39 20.42l.02 15.86-2.18.85-20.06-7.93 22.22-8.78h0 0z" fill="#ac2724"/><path d="M193.01 41.41a17.36 17.36 0 0 1 6.23-4.34 20 20 0 0 1 7.3-1.61 6.71 6.71 0 0 1 5 1.61 5 5 0 0 1 1.52 3.79 5.39 5.39 0 0 1-1.52 3.79 4.9 4.9 0 0 1-3.79 1.63c-6.24.55-14.9 6.77-14.9 15.22v19.18a5.57 5.57 0 0 1-5.42 5.41 4.92 4.92 0 0 1-3.87-1.67 5.36 5.36 0 0 1-1.62-3.79v-40a5.35 5.35 0 0 1 1.62-3.79 7.2 7.2 0 0 1 4.07-1.36 5.52 5.52 0 0 1 5.41 5.4zm65.71 17.6a5.25 5.25 0 0 1-1.35 3.54 6.11 6.11 0 0 1-3.79 1.62h-32a10.31 10.31 0 0 0 3.47 6.56 14.46 14.46 0 0 0 9.48 4.57 14.07 14.07 0 0 0 10.56-2.44 5.52 5.52 0 0 1 4.07-1.63 4.65 4.65 0 0 1 3.51 1.36 4.41 4.41 0 0 1 .26 6.24c-.08.09-.17.17-.26.26a24.49 24.49 0 0 1-17.59 6.5 23 23 0 0 1-17.57-7.58 26.67 26.67 0 0 1-7.3-17.9 24.31 24.31 0 0 1 7.3-17.88 22.59 22.59 0 0 1 17.06-7.31 22 22 0 0 1 16.74 6.78 24.78 24.78 0 0 1 7.61 16.74v.53zm-24.1-14.35a14.2 14.2 0 0 0-9.13 3.53 13.17 13.17 0 0 0-4.33 7h28.43a12.39 12.39 0 0 0-4.88-6.76 17.3 17.3 0 0 0-10-3.81m74.96 35.51a5.57 5.57 0 0 1-5.41 5.42 5.85 5.85 0 0 1-5.42-4.34 23.23 23.23 0 0 1-13.83 4.34 23.57 23.57 0 0 1-17.33-7.31 24.14 24.14 0 0 1-7.05-17.88 25.75 25.75 0 0 1 7.05-17.87 23.85 23.85 0 0 1 17.33-7.61 22.34 22.34 0 0 1 13.53 4.34V20.29a4.92 4.92 0 0 1 1.63-3.79 5.37 5.37 0 0 1 3.84-1.63 4.92 4.92 0 0 1 3.79 1.63 5.36 5.36 0 0 1 1.63 3.79v59.84zm-24.35-5.42a12 12 0 0 0 9.47-4.32c5.385-5.579 5.385-14.421 0-20a13 13 0 0 0-9.47-4.38 11.65 11.65 0 0 0-9.48 4.34c-5.385 5.579-5.385 14.421 0 20a12.49 12.49 0 0 0 9.48 4.32m40.36-54.38v2.18a5.5 5.5 0 0 1-1.67 4.12 4.64 4.64 0 0 1-3.79 1.35 4.86 4.86 0 0 1-3.78-1.61 5.44 5.44 0 0 1-1.63-4.06v-2a5.28 5.28 0 0 1 1.63-3.79 5.33 5.33 0 0 1 3.78-1.63 5 5 0 0 1 3.79 1.65 4.9 4.9 0 0 1 1.66 3.79m-9.13 16.53a5.28 5.28 0 0 1 3.79-1.63 4.85 4.85 0 0 1 3.79 1.63 5.48 5.48 0 0 1 1.55 4v39.61a4.55 4.55 0 0 1-1.66 3.79 5.33 5.33 0 0 1-3.78 1.63 4.9 4.9 0 0 1-3.79-1.63 5.28 5.28 0 0 1-1.63-3.79V40.86a5.39 5.39 0 0 1 1.63-4m47.65 3.75a5.29 5.29 0 0 1 2.17 3.24 7.17 7.17 0 0 1-.54 4.06 5.4 5.4 0 0 1-3.25 2.16 5.61 5.61 0 0 1-4.07-.81c-3.79-2.43-6.75-3.78-9.2-3.78a8.74 8.74 0 0 0-6 1.88c-1.08.82-1.62 1.36-1.62 1.9a2 2 0 0 0 .27 1.36 3.74 3.74 0 0 0 1.08.81 16.19 16.19 0 0 0 7.32 2.43h0a37.75 37.75 0 0 1 9.74 3 13.57 13.57 0 0 1 6.5 5.7 13.46 13.46 0 0 1-4.06 18.67 21.79 21.79 0 0 1-13 4.06c-6.23 0-12.18-2.43-17.87-7a5.77 5.77 0 0 1-1.9-3.53 5.2 5.2 0 0 1 8.4-4.56 15.73 15.73 0 0 0 11.1 4.33 11.61 11.61 0 0 0 6.77-1.9c1.08-1.08 1.9-1.89 1.9-2.71s0-1.08-.27-1.35c0-.28-.55-.81-1.36-1.08a20.15 20.15 0 0 0-8.13-2.86h0a28.26 28.26 0 0 1-9.2-3 16.56 16.56 0 0 1-6.5-5.67 12.61 12.61 0 0 1-1.61-6.23 13.3 13.3 0 0 1 5.95-11.11 21.82 21.82 0 0 1 12.45-3.79c4.56.28 9.48 2.16 14.89 5.69" fill="#636466"/></svg>