<svg xmlns="http://www.w3.org/2000/svg" viewBox="0 0 121 22" fill="#000"><circle opacity=".2" cx="3.4" cy="3.25" r="2.7"/><circle cx="3.4" cy="11.3" r="2.7"/><circle opacity=".2" cx="3.4" cy="19.5" r="2.7"/><circle cx="11.5" cy="11.3" r="2.7"/><circle cx="11.5" cy="19.5" r="2.7"/><circle opacity=".2" cx="11.5" cy="3.25" r="2.7"/><circle opacity=".2" cx="19.5" cy="3.25" r="2.7"/><circle cx="19.5" cy="11.3" r="2.7"/><circle opacity=".2" cx="19.5" cy="19.5" r="2.7"/><path d="M38.414 20.099a10.5 10.5 0 0 0 2.122-.215v-2.766c-.453.167-.954.215-1.431.215-1.168 0-1.597-.572-1.597-1.669v-5.627h3.028V7.272h-3.028V3.171H34.17v4.101H32v2.766h2.17v5.937c0 2.623 1.383 4.125 4.244 4.125zm7.573 0c1.788 0 2.98-.596 3.576-1.526.048.405.191.954.381 1.288h3.004c-.167-.572-.286-1.478-.286-2.074v-6.533c0-2.694-1.931-4.22-5.197-4.22-2.48 0-4.411.93-5.484 2.289l1.907 1.883c.858-.954 1.955-1.454 3.29-1.454 1.621 0 2.337.548 2.337 1.359 0 .691-.477 1.168-3.052 1.168-2.48 0-4.983 1.025-4.983 3.886 0 2.646 1.907 3.934 4.506 3.934zm.668-2.527c-1.287 0-1.884-.548-1.884-1.526 0-.858.715-1.431 1.907-1.431 1.907 0 2.432-.119 2.837-.524v1.025c0 1.359-1.144 2.456-2.861 2.456zm8.177-11.897h3.481V2.551h-3.481v3.123zm.072 14.186h3.338V7.272h-3.338v12.589zm5.769 0h3.338V2.933h-3.338v16.928zm10.276.238c3.672 0 5.555-1.931 5.555-3.958 0-1.836-.93-3.195-3.982-3.743-2.146-.381-3.481-.858-3.481-1.597 0-.644.763-1.097 2.05-1.097 1.144 0 2.098.382 2.813 1.216l2.122-1.788c-1.073-1.335-2.837-2.098-4.935-2.098-3.219 0-5.221 1.717-5.221 3.815 0 2.289 2.098 3.314 4.363 3.719 1.883.334 2.933.691 2.933 1.502 0 .691-.739 1.264-2.146 1.264-1.383 0-2.456-.644-2.956-1.597l-2.813 1.335c.691 1.717 3.052 3.028 5.698 3.028zm13.018 0c2.384 0 4.101-.954 5.388-3.099l-2.67-1.359c-.501 1.001-1.311 1.693-2.718 1.693-2.122 0-3.266-1.717-3.266-3.791S81.917 9.8 83.967 9.8c1.288 0 2.146.691 2.647 1.74l2.694-1.431c-.906-1.979-2.694-3.076-5.341-3.076-4.363 0-6.604 3.195-6.604 6.509 0 3.6 2.718 6.557 6.604 6.557zm10.705 0c1.788 0 2.98-.596 3.576-1.526.048.405.191.954.381 1.288h3.005c-.167-.572-.286-1.478-.286-2.074v-6.533c0-2.694-1.932-4.22-5.198-4.22-2.48 0-4.411.93-5.484 2.289l1.907 1.883c.858-.954 1.955-1.454 3.29-1.454 1.621 0 2.337.548 2.337 1.359 0 .691-.477 1.168-3.052 1.168-2.48 0-4.983 1.025-4.983 3.886 0 2.646 1.907 3.934 4.506 3.934zm.667-2.527c-1.287 0-1.883-.548-1.883-1.526 0-.858.715-1.431 1.907-1.431 1.907 0 2.432-.119 2.837-.524v1.025c0 1.359-1.144 2.456-2.861 2.456zm7.97 2.289h3.338V2.933h-3.338v16.928zm11.349.238c2.456 0 4.435-.977 5.531-2.718l-2.527-1.621c-.667 1.049-1.55 1.621-3.004 1.621-1.645 0-2.837-.906-3.147-2.67H121v-1.168c0-3.314-2.027-6.509-6.366-6.509-4.124 0-6.366 3.219-6.366 6.533 0 4.721 3.553 6.533 6.39 6.533zm-3.028-8.011c.525-1.597 1.621-2.337 3.076-2.337 1.645 0 2.646.978 2.98 2.337h-6.056z"/></svg>